<svg id="Avontuur" viewBox="0 0 228.19 260.43"><defs><style>.cls-1{fill:#fff;}</style></defs><title>Avontuur</title><g id="Wolk1"><path d="M89.8,53.88a16.71,16.71,0,0,1-3.74,7.71,14,14,0,0,1-10.58,4.65q-23.54.06-47.05,0c-7.13,0-12.63-4.71-14.06-11.76a2.91,2.91,0,0,0-.27-.6v-3.7A16,16,0,0,1,18.34,42a13.5,13.5,0,0,1,10.14-4c.94,0,1.26-.35,1.82-1,1.41-1.61,3.06-3,4.6-4.52.49-.47,1.14-.93,1.34-1.53,2-6.28,6.18-10.37,12.65-11.62C55.68,18,61.16,20.52,65.29,26c.1.13.22.25.43.5a12.65,12.65,0,0,1,11,2.2,13.24,13.24,0,0,1,5.74,9.45,4.18,4.18,0,0,0,1.86,3.28c3.15,2.17,4.71,5.41,5.5,9.06Zm-26.39-22c-.35-.69-.62-1.31-.95-1.89a11.8,11.8,0,0,0-22.15,3.65,2.13,2.13,0,0,1-1.86,2.09A6.8,6.8,0,0,0,33,41.85c-.18,1.3-.7,1.39-1.78,1.17a12.48,12.48,0,0,0-3.47-.41,9.39,9.39,0,0,0-8.94,10c.22,5,4.38,8.88,9.72,9,2.58,0,5.15,0,7.73,0,13,0,26,0,39,0a9.19,9.19,0,0,0,9-5.66,8.84,8.84,0,0,0-1.74-10.26c-1.26-1.34-3-2.19-4.64-3.32C78.39,33.21,73.14,29.31,63.41,31.91Z"/><path class="cls-1" d="M63.41,31.91c9.73-2.6,15,1.3,14.46,10.42,1.61,1.13,3.38,2,4.64,3.32a8.84,8.84,0,0,1,1.74,10.26,9.19,9.19,0,0,1-9,5.66c-13,0-26,0-39,0-2.58,0-5.15,0-7.73,0-5.34-.08-9.5-3.93-9.72-9a9.39,9.39,0,0,1,8.94-10,12.48,12.48,0,0,1,3.47.41c1.08.22,1.6.13,1.78-1.17a6.8,6.8,0,0,1,5.44-6.09,2.13,2.13,0,0,0,1.86-2.09A11.8,11.8,0,0,1,62.46,30C62.79,30.6,63.06,31.22,63.41,31.91Z"/></g><g id="Wolk2"><path d="M214.09,59.55c-1.08,4.25-2.53,8.29-5.63,11.59a21.13,21.13,0,0,1-15.92,7q-35.37.09-70.74,0c-10.72,0-19-7.08-21.13-17.68a4.62,4.62,0,0,0-.41-.91V54c1.1-4.63,2.83-8.92,6.38-12.3a20.26,20.26,0,0,1,15.25-6c1.4.06,1.89-.53,2.73-1.5,2.12-2.43,4.6-4.53,6.91-6.79.74-.72,1.72-1.41,2-2.31,3.05-9.44,9.31-15.59,19-17.48,10.21-2,18.44,1.84,24.66,10.11.15.2.32.38.64.76,5.94-1.59,11.51-.28,16.52,3.3A19.94,19.94,0,0,1,203,35.94a6.22,6.22,0,0,0,2.8,4.92c4.73,3.26,7.08,8.13,8.27,13.63Zm-39.69-33c-.52-1-.93-2-1.42-2.84-3.37-6-8.46-9.32-15.31-9.59a17.51,17.51,0,0,0-18,15.08c-.28,1.76-.88,2.69-2.8,3.14-4.74,1.13-7.51,4.37-8.17,9.16-.28,2-1.06,2.09-2.68,1.75a18.63,18.63,0,0,0-5.22-.61c-8.26.7-13.8,7-13.44,15,.33,7.56,6.58,13.36,14.61,13.47,3.87.05,7.75,0,11.63,0,19.55,0,39.1,0,58.66,0,6.17,0,10.92-2.78,13.48-8.5a13.31,13.31,0,0,0-2.62-15.43c-1.89-2-4.56-3.3-7-5C196.93,28.47,189,22.61,174.4,26.52Z"/><path class="cls-1" d="M174.4,26.52c14.63-3.91,22.53,1.95,21.74,15.66,2.42,1.7,5.09,3,7,5a13.31,13.31,0,0,1,2.62,15.43c-2.56,5.72-7.31,8.48-13.48,8.5-19.56.07-39.11,0-58.66,0-3.88,0-7.76,0-11.63,0-8-.11-14.28-5.91-14.61-13.47-.36-8.06,5.18-14.35,13.44-15a18.63,18.63,0,0,1,5.22.61c1.62.34,2.4.2,2.68-1.75.66-4.79,3.43-8,8.17-9.16,1.92-.45,2.52-1.38,2.8-3.14a17.51,17.51,0,0,1,18-15.08c6.85.27,11.94,3.63,15.31,9.59C173.47,24.55,173.88,25.48,174.4,26.52Z"/></g><g id="Kompas"><path id="kompas-kader" d="M184.25,117.88c-.72-4.94-2.47-9.56-4.13-14.23a62.86,62.86,0,0,0-9.19-16.19,71.43,71.43,0,0,0-10.22-10.94,68.05,68.05,0,0,0-10.59-7.59,100.3,100.3,0,0,0-10-4.82,62.39,62.39,0,0,0-14-4.09,42.08,42.08,0,0,0-6.92-.61c-3.46-.1-6.92,0-10.38,0a40.89,40.89,0,0,0-12.82,2.09A113.73,113.73,0,0,0,81.39,67.2,51.58,51.58,0,0,0,68.1,76.29c-1.53,1.49-3.31,2.74-4.78,4.3A80.27,80.27,0,0,0,51.81,96.17a76.78,76.78,0,0,0-6.93,18.13c-.62,2.33-.82,4.8-1.23,7.2a1.3,1.3,0,0,1-.27.42v16.6c.28,1.35.62,2.68.82,4,.73,4.94,2.47,9.57,4.13,14.24,2.12,5.95,5.49,11.18,9.19,16.19a71.07,71.07,0,0,0,10.24,10.94,67.5,67.5,0,0,0,10.58,7.59,101.31,101.31,0,0,0,10,4.81,69,69,0,0,0,14,4.13c1.2.26,2.44.41,3.67.6h16.6c1.39-.27,2.77-.57,4.18-.8A76.84,76.84,0,0,0,142,195.68a56.5,56.5,0,0,0,13-7.34,69.33,69.33,0,0,0,7.95-6.61,91.66,91.66,0,0,0,9-10.18,61.32,61.32,0,0,0,6.51-10.91,66,66,0,0,0,5.77-18.08c.21-1.36.55-2.69.82-4v-16.6C184.8,120.58,184.46,119.24,184.25,117.88Zm-11.73,18.39a58.33,58.33,0,0,1-52.12,52.24v-5.33H108.18v5.35a58.35,58.35,0,0,1-52.25-52.22h5.34V124.17H55.93A56.26,56.26,0,0,1,72.67,88.79a56.57,56.57,0,0,1,35.44-16.87v5.34h12.17V71.91a58.36,58.36,0,0,1,52.24,52.22h-5.33v12.14Z"/><path id="kompas-fill" class="cls-1" d="M167.19,124.13h5.33a58.36,58.36,0,0,0-52.24-52.22v5.35H108.11V71.92A56.57,56.57,0,0,0,72.67,88.79a56.26,56.26,0,0,0-16.74,35.38h5.34v12.14H55.93a58.35,58.35,0,0,0,52.25,52.22v-5.35H120.4v5.33a58.33,58.33,0,0,0,52.12-52.24h-5.33ZM148,98.76c-.77,1.54-1.52,3.08-2.32,4.59-1.69,3.2-3.43,6.37-5.12,9.57-.65,1.24-1.19,2.54-1.84,3.77-1.9,3.59-3.88,7.15-5.77,10.76-2.2,4.2-4.29,8.47-6.55,12.64a6.32,6.32,0,0,1-2.32,2.3c-3.1,1.77-6.29,3.4-9.46,5.06q-6.65,3.5-13.32,7l-12.74,6.64c-3.13,1.63-6.26,3.23-9.4,4.84-.11.06-.26,0-.49,0,0-.26-.09-.55,0-.75,1.45-2.86,2.9-5.72,4.4-8.55,1.89-3.6,3.86-7.16,5.76-10.75,2.24-4.23,4.44-8.49,6.65-12.74s4.33-8.54,6.62-12.75a6.3,6.3,0,0,1,2.33-2.31c3.1-1.77,6.29-3.4,9.45-5.06,4.44-2.33,8.89-4.63,13.33-7l12.74-6.64q4.68-2.43,9.4-4.84a3.15,3.15,0,0,1,.74,0Z"/><path id="kompas-wijzer" d="M149.33,94.55q-4.71,2.42-9.4,4.84L127.19,106c-4.44,2.33-8.89,4.63-13.33,7-3.16,1.66-6.35,3.29-9.45,5.06a6.3,6.3,0,0,0-2.33,2.31c-2.29,4.21-4.41,8.5-6.62,12.75s-4.41,8.51-6.65,12.74c-1.9,3.59-3.87,7.15-5.76,10.75-1.5,2.83-3,5.69-4.4,8.55-.1.2,0,.49,0,.75.23,0,.38,0,.49,0,3.14-1.61,6.27-3.21,9.4-4.84l12.74-6.64q6.66-3.48,13.32-7c3.17-1.66,6.36-3.29,9.46-5.06a6.32,6.32,0,0,0,2.32-2.3c2.26-4.17,4.35-8.44,6.55-12.64,1.89-3.61,3.87-7.17,5.77-10.76.65-1.23,1.19-2.53,1.84-3.77,1.69-3.2,3.43-6.37,5.12-9.57.8-1.51,1.55-3,2.32-4.59l2.1-4.21A3.15,3.15,0,0,0,149.33,94.55Zm-35.18,41.77a6.1,6.1,0,1,1,6.17-6.12A5.92,5.92,0,0,1,114.15,136.32Z"/><path id="kompas-inner" class="cls-1" d="M120.32,130.2a6.09,6.09,0,1,1-5.94-6.07A5.92,5.92,0,0,1,120.32,130.2Z"/></g></svg>