<svg id="Humor" xmlns="http://www.w3.org/2000/svg" viewBox="0 0 228.19 260.43"><defs><style>.cls-1{fill:#fff;}</style></defs><title>Humor</title><g id="Mask-border"><path id="mask-kader" d="M114.64,51c14.87.56,29.54,1.9,43.23,7.88,6.2,2.71,11.85,6.77,17.53,10.56,7,4.71,6.92,12.06,6.29,19.37-.74,8.66-1.36,17.35-2.54,26-3.66,26.81-11.91,51.84-30.09,72.59-8.66,9.88-19.08,17.57-31.74,21.7a10.72,10.72,0,0,1-6.27,0C95,203.78,82.94,193.14,73.13,179.77c-12.26-16.71-19-35.77-22.37-56C48.6,110.66,48.15,97.22,46.61,84c-.84-7.2,2.89-11.77,7.86-15.82C64.55,59.91,76.4,55.63,89,53.64,97.5,52.31,106.1,51.81,114.64,51Zm-.19,7.79c-6.71.58-13.46.89-20.13,1.8-11.43,1.55-22.38,4.69-32,11.4-5.39,3.76-10.08,7.9-7.55,15.55a7.85,7.85,0,0,1,.06,1.62c.88,9.74,1.28,19.55,2.76,29.2,3.06,20,9.26,39,21,55.76,7.89,11.27,17.8,20.23,30.4,26.07,3.22,1.5,6.15,1.86,9.61.29a74.57,74.57,0,0,0,27.62-21.91c15.19-19,22.05-41.32,25.33-64.92,1.36-9.78,1.7-19.69,2.68-29.53a8.82,8.82,0,0,0-3.89-8.76c-5.24-3.48-10.47-7.18-16.2-9.62C141.54,60.31,128.06,59.2,114.45,58.74Z"/><path id="Mond-kader" d="M114.07,176.33c-10.5-.18-18-5.78-24.13-13.62a75.18,75.18,0,0,1-12.36-24.34c-.48-1.52-.34-4.14.62-5,1.18-1,3.62-1.18,5.34-.84,8.64,1.69,17.22,3.7,25.84,5.51,7.16,1.5,14.07-.45,21-1.89,4.9-1,9.68-2.63,14.59-3.62,1.74-.35,4.33-.28,5.37.76s1,3.67.5,5.3c-3.21,10.06-7.79,19.47-15,27.29C130,172.19,123.07,176.49,114.07,176.33Zm-26.74-35a51.25,51.25,0,0,0,13.72,21.75c8,7.33,18.49,7.27,26.45-.08a54.6,54.6,0,0,0,12.66-18.44,28.48,28.48,0,0,0,1-3.27A79.68,79.68,0,0,1,87.33,141.34Z"/><path id="Linker-oog" d="M70.1,112C76,105.42,81.56,99.16,90.5,98.47c2.77-.22,6,1.22,8.52,2.7,3.18,1.85,5.89,4.53,9,7C102.88,111.39,77.12,113.93,70.1,112Z"/><path id="Recter-oog" d="M157.81,112.61c-12.67.75-24.7-.89-36.78-3.34,1.94-4.89,11.2-10.91,16.41-11C144.72,98.14,155.54,107.2,157.81,112.61Z"/></g><g id="Mask-inner"><path id="Mask-inner-2" data-name="Mask-inner" class="cls-1" d="M114.45,58.74c13.61.46,27.09,1.57,39.7,6.95,5.73,2.44,11,6.14,16.2,9.62a8.82,8.82,0,0,1,3.89,8.76c-1,9.84-1.32,19.75-2.68,29.53-3.28,23.6-10.14,45.93-25.33,64.92a74.57,74.57,0,0,1-27.62,21.91c-3.46,1.57-6.39,1.21-9.61-.29-12.6-5.84-22.51-14.8-30.4-26.07-11.75-16.78-17.95-35.75-21-55.76-1.48-9.65-1.88-19.46-2.76-29.2a7.85,7.85,0,0,0-.06-1.62c-2.53-7.65,2.16-11.79,7.55-15.55,9.62-6.71,20.57-9.85,32-11.4C101,59.63,107.74,59.32,114.45,58.74Zm-.38,117.59c9,.16,16-4.14,21.74-10.41,7.2-7.82,11.78-17.23,15-27.29.52-1.63.48-4.31-.5-5.3s-3.63-1.11-5.37-.76c-4.91,1-9.69,2.59-14.59,3.62-6.89,1.44-13.8,3.39-21,1.89-8.62-1.81-17.2-3.82-25.84-5.51-1.72-.34-4.16-.17-5.34.84-1,.82-1.1,3.44-.62,5a75.18,75.18,0,0,0,12.36,24.34C96.1,170.55,103.57,176.15,114.07,176.33ZM70.1,112c7,1.94,32.78-.6,37.93-3.81-3.12-2.48-5.83-5.16-9-7-2.54-1.48-5.75-2.92-8.52-2.7C81.56,99.16,76,105.42,70.1,112Zm87.71.62c-2.27-5.41-13.09-14.47-20.37-14.34-5.21.09-14.47,6.11-16.41,11C133.11,111.72,145.14,113.36,157.81,112.61Z"/><path id="Mond-inner" class="cls-1" d="M87.33,141.34a79.68,79.68,0,0,0,53.79,0,28.48,28.48,0,0,1-1,3.27A54.6,54.6,0,0,1,127.5,163c-8,7.35-18.49,7.41-26.45.08A51.25,51.25,0,0,1,87.33,141.34Z"/></g></svg>