<svg id="Detective" viewBox="0 0 228.19 260.43">
<title>Detective</title>
<g id="vergroot-inner" classs="svg-inner">
<ellipse id="oogwit" cx="98.93" cy="113.74" rx="51.24" ry="51.75"/>
<path id="oog-inner" d="M128.59,115.44c-1,12.78-11.22,22.6-20.13,25.44a29.65,29.65,0,0,1-36.64-16.27c-4.55-10.76-3.19-21,3.83-30.39a4.67,4.67,0,0,1,1.19-1.12A5.5,5.5,0,0,1,78,92.51l2-.63h0a65.26,65.26,0,0,1,12.3-2.56c2.28-.22,4.58-.35,6.86-.53A66.24,66.24,0,0,1,118.3,92c.58.16,1.15.35,1.73.55a2.54,2.54,0,0,1,.38.16h0a5.12,5.12,0,0,1,2.11,1.76A30.18,30.18,0,0,1,128.59,115.44Z"/>
<path id="oog-inner-2" data-name="oog-inner" class="cls-1" d="M148.83,100.66l-.15.16c-.4-.23-.81-.45-1.19-.71a119.67,119.67,0,0,0-18.15-10.26,81.47,81.47,0,0,0-20.78-6.28,69.81,69.81,0,0,0-13-.45c-12.93.48-24.6,5-35.74,11.23-3.12,1.73-6.08,3.74-9.11,5.63-.46.28-.93.54-1.5.87a51.29,51.29,0,0,1,52.4-38.79A50.56,50.56,0,0,1,135,76.75C141.9,83.39,146.24,91.54,148.83,100.66Z"/>
</g>
<g id="vergroot-border" class="svg-border">
<path id="vergroot-kader" d="M165.38,173.55l-22.25-22.22,1.52-2c7.54-9.85,12-20.85,12.29-33.35a58.21,58.21,0,0,0-.84-13.89c-3.77-17.31-13.19-30.57-28.54-39.5a54.53,54.53,0,0,0-21.27-7l-3.94-.43H95.14c-1.87.25-3.73.47-5.59.74a51.67,51.67,0,0,0-15.4,4.8A57.77,57.77,0,0,0,45.28,90.91a56.17,56.17,0,0,0-4,15c-.23,1.84-.2,3.72-.28,5.58,0,.38-.07.75-.1,1.13v1.54c0,.4.1.81.09,1.21a46.4,46.4,0,0,0,2.08,13.94A58.15,58.15,0,0,0,69.8,163.59a54.51,54.51,0,0,0,25.52,7.67,59.59,59.59,0,0,0,12.38-.47A58.46,58.46,0,0,0,130,162.51c1.07-.68,2.16-1.34,3.27-2L178,205.28l9.54-9.52ZM101.6,62.05A50.52,50.52,0,0,1,135,76.75c6.9,6.64,11.24,14.78,13.83,23.91-.05.06-.11.11-.15.17-.4-.24-.81-.46-1.19-.72a119.67,119.67,0,0,0-18.15-10.26,81.47,81.47,0,0,0-20.78-6.28,69.82,69.82,0,0,0-13-.46c-12.93.48-24.6,5.06-35.74,11.23-3.12,1.74-6.08,3.76-9.11,5.63-.46.28-.93.54-1.5.88A51.3,51.3,0,0,1,101.6,62.05Zm8.5,101.3a49.67,49.67,0,0,1-15.61.93,49.86,49.86,0,0,1-32.84-15.85A50.45,50.45,0,0,1,48.52,122.6a64.67,64.67,0,0,1-.73-13,1.36,1.36,0,0,1,1-1.38A20.48,20.48,0,0,0,52,106.37q5.94-3.7,11.89-7.41h0c.49-.3,1-.6,1.47-.91a10,10,0,0,1,1-.45s0,.07,0,.11c3.22-1.59,6.77-3.11,10.53-4.59A5.5,5.5,0,0,1,78,92.51l2-.63h0a65.26,65.26,0,0,1,12.3-2.56c2.28-.22,4.58-.35,6.86-.53A66.24,66.24,0,0,1,118.3,92c.58.16,1.15.35,1.73.55a2.54,2.54,0,0,1,.38.16h0A84.18,84.18,0,0,1,132.7,98a3.09,3.09,0,0,1,.44.24,0,0,0,0,1,0,0,55.24,55.24,0,0,1,6.16,3.9c2.12,1.34,4.24,2.71,6.36,4.06,1.38.9,2.7,1.92,4,2.92a1.19,1.19,0,0,1,.45.78,49.82,49.82,0,0,1-6.51,28.59C136,151.54,124.86,159.92,110.1,163.35Z"/>
<path id="oog-inner-kader"d="M118.19,142.74c-12.68,7.43-25.43,7.66-38.11.11a33.67,33.67,0,0,1-13.55-15.39c-4.48-9.85-4.13-19.73-.22-29.76h0c3.22-1.59,6.77-3.11,10.53-4.59a4.67,4.67,0,0,0-1.19,1.12c-7,9.41-8.38,19.63-3.83,30.39a29.65,29.65,0,0,0,36.64,16.27c8.91-2.84,19.18-12.66,20.13-25.44a30.18,30.18,0,0,0-6.06-21,5.12,5.12,0,0,0-2.11-1.76A84.18,84.18,0,0,1,132.7,98c-.31-.14-.65-.28-1-.46C138,116,134.27,131.23,118.19,142.74Z"/>
<path id="pupil"d="M98.9,98c7.76-.67,15,6.64,14.89,14.74a14.79,14.79,0,0,1-25.59,10c-3.38-3.43-4-7.62-3.82-12.22C84.61,105.43,90.84,97.38,98.9,98Z"/>
</g>
<g id="rechtervoet" class="svg-border">
<path d="M51.49,195.77a7.89,7.89,0,0,1,2.29,7.65c-.49,2.49-1.44,4.89-3.64,6.33a10.69,10.69,0,0,1-10,1.2c-1.08-.41-2.11-.91-3.19-1.28-5.27-1.82-10,.57-11.62,5.91a26.08,26.08,0,0,0-.6,9.68c.18,2.39.58,4.76.72,7.15a11.77,11.77,0,0,1-7,11.68,9.22,9.22,0,0,1-11.81-2.75,16.74,16.74,0,0,1-3.09-15.59c.92-3.13,3-5.56,5.09-8a75.71,75.71,0,0,0,6.18-7.38A23.12,23.12,0,0,0,18.75,198a9.05,9.05,0,0,1,7.5-9.08c5.53-1.21,10.9-.35,16.17,1.49A25.45,25.45,0,0,1,51.49,195.77Z"/>
<path d="M56.68,187a9.82,9.82,0,0,1,5.83-3c3.17-.37,5.39,1.64,5.23,4.84a9.66,9.66,0,0,1-3.65,6.83A9.51,9.51,0,0,1,59,198.1c-3.36.43-5.64-1.7-5.37-5.06A9.52,9.52,0,0,1,56.68,187Z"/>
<path d="M49,180.89a18.24,18.24,0,0,1,3.35-1.45,3.06,3.06,0,0,1,3.76,3.19,6.23,6.23,0,0,1-5.08,5.82,3.09,3.09,0,0,1-3.71-3.28,5.63,5.63,0,0,1,1.8-4Z"/><path d="M41.45,178c.2-.14.52-.38.85-.58,1.36-.84,2.69-.93,3.59-.2a3.1,3.1,0,0,1,.85,3.51,5.43,5.43,0,0,1-3.34,3.87,2.61,2.61,0,0,1-3.78-2.72A6,6,0,0,1,41.45,178Z"/>
<path d="M32.09,177.63c.17-.16.32-.34.49-.48a3.17,3.17,0,0,1,3.66-.51,2.89,2.89,0,0,1,1.16,3.21,5.39,5.39,0,0,1-3.26,4.37,2.56,2.56,0,0,1-3.81-2.37A5.51,5.51,0,0,1,32.09,177.63Z"/>
<path d="M23.25,180.34a4.53,4.53,0,0,1,.49-.49,3.24,3.24,0,0,1,3.48-.62,2.91,2.91,0,0,1,1.34,3.24,5.44,5.44,0,0,1-3.28,4.47,2.55,2.55,0,0,1-3.78-2.3A5.27,5.27,0,0,1,23.25,180.34Z"/>
</g>
<g id="linkervoet" class="svg-border">
<path d="M38.72,239.56a11,11,0,0,1,8.41-3.41c2.59.11,5.16.6,7.75.68a58,58,0,0,0,8.34-.22,8.87,8.87,0,0,0,6.86-4.29,8.45,8.45,0,0,0,.61-7.49c-.49-1.38-1.09-2.74-1.65-4.1-1.84-4.51.27-8.76,3.22-11.21a8.77,8.77,0,0,1,9.27-1.71,9,9,0,0,1,4.07,3.6A31,31,0,0,1,91.28,233c-.62,5.91-4.35,9.27-10.27,9.88a24.29,24.29,0,0,0-13.45,5.51c-2.48,2.1-4.82,4.36-7.3,6.46a16.8,16.8,0,0,1-20.63.63,10,10,0,0,1-4.19-10.27A13.36,13.36,0,0,1,38.72,239.56Z"/>
<path d="M92.76,204.51a9.67,9.67,0,0,1-5.44,2.93c-3.59.58-6-1.82-5.54-5.42a10.84,10.84,0,0,1,8.43-8.57c3.76-.57,6.19,1.9,5.56,5.66A10,10,0,0,1,92.76,204.51Z"/>
<path d="M99,211.84c-1.57,1.46-2.84,2.22-4.45,2.26a3.14,3.14,0,0,1-3.35-3.91,6.32,6.32,0,0,1,5.51-4.88,3.11,3.11,0,0,1,3.45,3.95A12.15,12.15,0,0,1,99,211.84Z"/>
<path d="M102.16,229.18a26.06,26.06,0,0,1-3.31,1.34,2.84,2.84,0,0,1-3.29-1.17,3.08,3.08,0,0,1,.44-3.49,5.86,5.86,0,0,1,3.66-2.3c1.34-.23,2.63-.11,3.42,1.13s.35,2.34-.34,3.42c-.2.3-.44.57-.65.85Z"/>
<path d="M94.55,233.87a5.55,5.55,0,0,1,4.38-1.68,2.54,2.54,0,0,1,2.3,3.59,5.72,5.72,0,0,1-5.62,3.5c-2.33-.29-3.2-2.56-1.75-4.6C94.09,234.36,94.37,234.08,94.55,233.87Z"/><path d="M101.54,220.34a21.5,21.5,0,0,1-2.88,1.35,2.88,2.88,0,0,1-3.38-.91,3.05,3.05,0,0,1,.2-3.59A6.11,6.11,0,0,1,99,214.68a3.17,3.17,0,0,1,3.54,1,3.34,3.34,0,0,1-.38,3.6c-.21.29-.47.55-.71.82Z"/>
</g>
</svg>


<svg id="Detective" viewBox="0 0 228.19 260.43">
<title>Detective</title>
<g id="vergroot-inner" class="svg-inner">
    <path id="oogwit" d="M143.64,138.51c-7.62,13-18.78,21.41-33.54,24.84a49.67,49.67,0,0,1-15.61.93,49.86,49.86,0,0,1-32.84-15.85A50.45,50.45,0,0,1,48.52,122.6a64.67,64.67,0,0,1-.73-13,1.36,1.36,0,0,1,1-1.38A20.48,20.48,0,0,0,52,106.37q5.94-3.7,11.89-7.41h0c.49-.3,1-.6,1.47-.91a10,10,0,0,1,1-.45s0,.07,0,.11h0c-3.91,10-4.26,19.91.22,29.76a33.67,33.67,0,0,0,13.55,15.39c12.68,7.55,25.43,7.32,38.11-.11C134.27,131.23,138,116,131.67,97.55c.38.18.72.32,1,.46l.44.24a0,0,0,0,1,0,0c2,1.29,4.11,2.59,6.16,3.9s4.24,2.71,6.36,4.06c1.38.9,2.7,1.92,4,2.92a1.19,1.19,0,0,1,.45.78A49.82,49.82,0,0,1,143.64,138.51Z"/>
    <path id="oog-inner" d="M128.59,115.44c-1,12.78-11.22,22.6-20.13,25.44a29.65,29.65,0,0,1-36.64-16.27c-4.55-10.76-3.19-21,3.83-30.39a4.67,4.67,0,0,1,1.19-1.12A5.5,5.5,0,0,1,78,92.51l2-.63h0a65.26,65.26,0,0,1,12.3-2.56c2.28-.22,4.58-.35,6.86-.53A66.24,66.24,0,0,1,118.3,92c.58.16,1.15.35,1.73.55a2.54,2.54,0,0,1,.38.16h0a5.12,5.12,0,0,1,2.11,1.76A30.18,30.18,0,0,1,128.59,115.44Z"/>
    <path id="oog-lid" d="M148.83,100.66l-.15.16c-.4-.23-.81-.45-1.19-.71a119.67,119.67,0,0,0-18.15-10.26,81.47,81.47,0,0,0-20.78-6.28,69.81,69.81,0,0,0-13-.45c-12.93.48-24.6,5-35.74,11.23-3.12,1.73-6.08,3.74-9.11,5.63-.46.28-.93.54-1.5.87a51.29,51.29,0,0,1,52.4-38.79A50.56,50.56,0,0,1,135,76.75C141.9,83.39,146.24,91.54,148.83,100.66Z"/>
</g>
<g id="vergroot-border" class="svg-border">
    <path id="vergroot-kader" d="M165.38,173.55l-22.25-22.22,1.52-2c7.54-9.85,12-20.85,12.29-33.35a58.21,58.21,0,0,0-.84-13.89c-3.77-17.31-13.19-30.57-28.54-39.5a54.53,54.53,0,0,0-21.27-7l-3.94-.43H95.14c-1.87.25-3.73.47-5.59.74a51.67,51.67,0,0,0-15.4,4.8A57.77,57.77,0,0,0,45.28,90.91a56.17,56.17,0,0,0-4,15c-.23,1.84-.2,3.72-.28,5.58,0,.38-.07.75-.1,1.13v1.54c0,.4.1.81.09,1.21a46.4,46.4,0,0,0,2.08,13.94A58.15,58.15,0,0,0,69.8,163.59a54.51,54.51,0,0,0,25.52,7.67,59.59,59.59,0,0,0,12.38-.47A58.46,58.46,0,0,0,130,162.51c1.07-.68,2.16-1.34,3.27-2L178,205.28l9.54-9.52ZM101.6,62.05A50.52,50.52,0,0,1,135,76.75c6.9,6.64,11.24,14.78,13.83,23.91-.05.06-.11.11-.15.17-.4-.24-.81-.46-1.19-.72a119.67,119.67,0,0,0-18.15-10.26,81.47,81.47,0,0,0-20.78-6.28,69.82,69.82,0,0,0-13-.46c-12.93.48-24.6,5.06-35.74,11.23-3.12,1.74-6.08,3.76-9.11,5.63-.46.28-.93.54-1.5.88A51.3,51.3,0,0,1,101.6,62.05Zm8.5,101.3a49.67,49.67,0,0,1-15.61.93,49.86,49.86,0,0,1-32.84-15.85A50.45,50.45,0,0,1,48.52,122.6a64.67,64.67,0,0,1-.73-13,1.36,1.36,0,0,1,1-1.38A20.48,20.48,0,0,0,52,106.37q5.94-3.7,11.89-7.41h0c.49-.3,1-.6,1.47-.91a10,10,0,0,1,1-.45s0,.07,0,.11c3.22-1.59,6.77-3.11,10.53-4.59A5.5,5.5,0,0,1,78,92.51l2-.63h0a65.26,65.26,0,0,1,12.3-2.56c2.28-.22,4.58-.35,6.86-.53A66.24,66.24,0,0,1,118.3,92c.58.16,1.15.35,1.73.55a2.54,2.54,0,0,1,.38.16h0A84.18,84.18,0,0,1,132.7,98a3.09,3.09,0,0,1,.44.24,0,0,0,0,1,0,0,55.24,55.24,0,0,1,6.16,3.9c2.12,1.34,4.24,2.71,6.36,4.06,1.38.9,2.7,1.92,4,2.92a1.19,1.19,0,0,1,.45.78,49.82,49.82,0,0,1-6.51,28.59C136,151.54,124.86,159.92,110.1,163.35Z"/>
    <path id="oog-inner-kader" d="M118.19,142.74c-12.68,7.43-25.43,7.66-38.11.11a33.67,33.67,0,0,1-13.55-15.39c-4.48-9.85-4.13-19.73-.22-29.76h0c3.22-1.59,6.77-3.11,10.53-4.59a4.67,4.67,0,0,0-1.19,1.12c-7,9.41-8.38,19.63-3.83,30.39a29.65,29.65,0,0,0,36.64,16.27c8.91-2.84,19.18-12.66,20.13-25.44a30.18,30.18,0,0,0-6.06-21,5.12,5.12,0,0,0-2.11-1.76A84.18,84.18,0,0,1,132.7,98c-.31-.14-.65-.28-1-.46C138,116,134.27,131.23,118.19,142.74Z"/>
    <path id="pupil" d="M98.9,98c7.76-.67,15,6.64,14.89,14.74a14.79,14.79,0,0,1-25.59,10c-3.38-3.43-4-7.62-3.82-12.22C84.61,105.43,90.84,97.38,98.9,98Z"/>
</g>
<g id="rechtervoet" class="svg-border">
    <path d="M51.49,195.77a7.89,7.89,0,0,1,2.29,7.65c-.49,2.49-1.44,4.89-3.64,6.33a10.69,10.69,0,0,1-10,1.2c-1.08-.41-2.11-.91-3.19-1.28-5.27-1.82-10,.57-11.62,5.91a26.08,26.08,0,0,0-.6,9.68c.18,2.39.58,4.76.72,7.15a11.77,11.77,0,0,1-7,11.68,9.22,9.22,0,0,1-11.81-2.75,16.74,16.74,0,0,1-3.09-15.59c.92-3.13,3-5.56,5.09-8a75.71,75.71,0,0,0,6.18-7.38A23.12,23.12,0,0,0,18.75,198a9.05,9.05,0,0,1,7.5-9.08c5.53-1.21,10.9-.35,16.17,1.49A25.45,25.45,0,0,1,51.49,195.77Z"/>
    <path d="M56.68,187a9.82,9.82,0,0,1,5.83-3c3.17-.37,5.39,1.64,5.23,4.84a9.66,9.66,0,0,1-3.65,6.83A9.51,9.51,0,0,1,59,198.1c-3.36.43-5.64-1.7-5.37-5.06A9.52,9.52,0,0,1,56.68,187Z"/>
    <path d="M49,180.89a18.24,18.24,0,0,1,3.35-1.45,3.06,3.06,0,0,1,3.76,3.19,6.23,6.23,0,0,1-5.08,5.82,3.09,3.09,0,0,1-3.71-3.28,5.63,5.63,0,0,1,1.8-4Z"/>
    <path d="M41.45,178c.2-.14.52-.38.85-.58,1.36-.84,2.69-.93,3.59-.2a3.1,3.1,0,0,1,.85,3.51,5.43,5.43,0,0,1-3.34,3.87,2.61,2.61,0,0,1-3.78-2.72A6,6,0,0,1,41.45,178Z"/>
    <path d="M32.09,177.63c.17-.16.32-.34.49-.48a3.17,3.17,0,0,1,3.66-.51,2.89,2.89,0,0,1,1.16,3.21,5.39,5.39,0,0,1-3.26,4.37,2.56,2.56,0,0,1-3.81-2.37A5.51,5.51,0,0,1,32.09,177.63Z"/>
    <path d="M23.25,180.34a4.53,4.53,0,0,1,.49-.49,3.24,3.24,0,0,1,3.48-.62,2.91,2.91,0,0,1,1.34,3.24,5.44,5.44,0,0,1-3.28,4.47,2.55,2.55,0,0,1-3.78-2.3A5.27,5.27,0,0,1,23.25,180.34Z"/>
</g>
<g id="linkervoet" class="svg-border">
    <path d="M38.72,239.56a11,11,0,0,1,8.41-3.41c2.59.11,5.16.6,7.75.68a58,58,0,0,0,8.34-.22,8.87,8.87,0,0,0,6.86-4.29,8.45,8.45,0,0,0,.61-7.49c-.49-1.38-1.09-2.74-1.65-4.1-1.84-4.51.27-8.76,3.22-11.21a8.77,8.77,0,0,1,9.27-1.71,9,9,0,0,1,4.07,3.6A31,31,0,0,1,91.28,233c-.62,5.91-4.35,9.27-10.27,9.88a24.29,24.29,0,0,0-13.45,5.51c-2.48,2.1-4.82,4.36-7.3,6.46a16.8,16.8,0,0,1-20.63.63,10,10,0,0,1-4.19-10.27A13.36,13.36,0,0,1,38.72,239.56Z"/><path d="M92.76,204.51a9.67,9.67,0,0,1-5.44,2.93c-3.59.58-6-1.82-5.54-5.42a10.84,10.84,0,0,1,8.43-8.57c3.76-.57,6.19,1.9,5.56,5.66A10,10,0,0,1,92.76,204.51Z"/>
    <path d="M99,211.84c-1.57,1.46-2.84,2.22-4.45,2.26a3.14,3.14,0,0,1-3.35-3.91,6.32,6.32,0,0,1,5.51-4.88,3.11,3.11,0,0,1,3.45,3.95A12.15,12.15,0,0,1,99,211.84Z"/>
    <path d="M102.16,229.18a26.06,26.06,0,0,1-3.31,1.34,2.84,2.84,0,0,1-3.29-1.17,3.08,3.08,0,0,1,.44-3.49,5.86,5.86,0,0,1,3.66-2.3c1.34-.23,2.63-.11,3.42,1.13s.35,2.34-.34,3.42c-.2.3-.44.57-.65.85Z"/><path d="M94.55,233.87a5.55,5.55,0,0,1,4.38-1.68,2.54,2.54,0,0,1,2.3,3.59,5.72,5.72,0,0,1-5.62,3.5c-2.33-.29-3.2-2.56-1.75-4.6C94.09,234.36,94.37,234.08,94.55,233.87Z"/>
    <path d="M101.54,220.34a21.5,21.5,0,0,1-2.88,1.35,2.88,2.88,0,0,1-3.38-.91,3.05,3.05,0,0,1,.2-3.59A6.11,6.11,0,0,1,99,214.68a3.17,3.17,0,0,1,3.54,1,3.34,3.34,0,0,1-.38,3.6c-.21.29-.47.55-.71.82Z"/>
    </g>
</svg>