<svg id="Oorlog" viewBox="0 0 228.19 260.43"><title>Oorlog</title><path id="Bottom-cloud" d="M47,208.11c1.08-3.87,3.93-5.87,7.55-6.94a10,10,0,0,1,6.84.46,2.12,2.12,0,0,0,2.13-.29c2-1,2.45-2.65,3-4.63a15,15,0,0,1,19.79-10.4l.68.24c5.33-6.94,13.93-6.26,18.37-1.1a34.55,34.55,0,0,1,3.1-4.16,6,6,0,0,1,5.11-1.44c3.38.34,5.43,2.71,6.33,7.36A11.81,11.81,0,0,1,128,188a1.38,1.38,0,0,0,1,0,15.57,15.57,0,0,1,14.24,1.22c3.19-2.95,5.93-3.5,8.55-1.75s3.31,4.65,1.89,8.34l1.1.74c1.62-3,4-4.55,7.39-3.91s4.87,3,5.32,6.23a7,7,0,0,1,5.88,3.27c.22.32.75.44,1.15.58,2.81,1,5.25,2.37,6.27,5.41Z"/><path id="Uppercloud" d="M158.76,114.72a13.2,13.2,0,0,1-12.56.13,2.34,2.34,0,0,0-1.29,0c-2.39.29-4.79.58-7.17.93a2,2,0,0,0-1.22.59,19,19,0,0,1-29.87-.38,1.51,1.51,0,0,0-1.2-.48A26,26,0,0,1,85.63,112c-.08-.05-.19,0-.42-.07a11.65,11.65,0,0,1-9.45,6.88c-4.37.5-7.89-1.27-10.68-4.59-8.14,4.73-14.73,4.44-19.89-.87a14.19,14.19,0,0,1-2-17.24C47,89.89,53.36,88,61.69,90.52a32,32,0,0,1,.7-3.64,13.13,13.13,0,0,1,13.48-9.42,1.84,1.84,0,0,0,1.39-.75A26.18,26.18,0,0,1,93,64.83,2.51,2.51,0,0,0,94.3,64C100,55.48,108,51.46,118,52.47c10.45,1.06,17.56,6.94,21.31,16.8.07.17.16.34.24.52,9.71-6.71,21.75-1,23.18,10.13,4.22-1.16,8.22-.82,11.84,1.85A12.92,12.92,0,0,1,179.69,90a4,4,0,0,0,1.21,2.24c5,4,7.24,9.26,6.12,15.58a15,15,0,0,1-11.53,12.59c-6.26,1.66-11.7-.16-16.1-5Z"/><path id="Mid_Cloud" data-name="Mid Cloud" d="M153.18,137.37c3.58.84,7,1.94,10,4.2,3.23,2.5,3.2,5.24-.11,7.67s-7.11,3.61-11,4.63a114.54,114.54,0,0,1-25.37,3.64c-8.4.27-16.83.35-25.23,0-10.13-.44-20.2-1.7-29.83-5.14A27.32,27.32,0,0,1,65.19,149c-3.08-2.18-3-4.84-.14-7.27a25.51,25.51,0,0,1,10.16-4.41,23.35,23.35,0,0,0-2,1.78c-1.27,1.35-1.42,2.83,0,4a20.61,20.61,0,0,0,5.22,3.24c5.57,2.31,11.5,3.18,17.43,3.91a153.2,153.2,0,0,0,24.6.9c9.53-.37,19-1.2,28.14-4.26a24.23,24.23,0,0,0,5.2-2.45c3.17-2,3.15-4.32.12-6.57Z"/><g id="Upper-mid"><path d="M108.05,123.65a23.92,23.92,0,0,0,14.34,4.27v18.67h-13.5C108.61,139,108.33,131.38,108.05,123.65Z"/><path d="M137.61,145.07l-10.49,1.25a3.13,3.13,0,0,1-.21-.83c.21-5.76.41-11.52.69-17.28a1.86,1.86,0,0,1,1.05-1.29,25.75,25.75,0,0,0,9.65-5.85,4.28,4.28,0,0,1,2.23-.78A84.46,84.46,0,0,0,137.61,145.07Z"/><path d="M98.06,146a84,84,0,0,0-3.23-25.5h8.89a140.07,140.07,0,0,1,1.7,26Z"/></g><g id="Under-mid"><path d="M128.29,162,139.64,161a56.73,56.73,0,0,0,9.15,20.56c-2,.72-3.88,1.44-5.8,2.09a2.51,2.51,0,0,1-1.14-.09c-2.49-.4-5-.78-7.44-1.26-.54-.1-1.3-.44-1.47-.87a77.28,77.28,0,0,1-4.71-18.76A3.19,3.19,0,0,1,128.29,162Z"/><path d="M108,162.44h14.82q1.56,9.88,3.16,20c-1.38,0-2.63,0-3.67-1.76a11.24,11.24,0,0,0-15-4.05l-1.34.69c.4-2.62.79-5,1.12-7.43S107.65,165.09,108,162.44Z"/><path d="M101.16,177.51c-4.37-.89-8.24-.67-11.69,1.08l6.83-16.91,8.09.6C103.31,167.36,102.25,172.35,101.16,177.51Z"/></g></svg>