<svg id="Romantic" xmlns="http://www.w3.org/2000/svg" viewBox="0 0 228.19 260.43"><defs><style>.cls-1{fill:#fff;}</style></defs><title>Romatiek</title><path id="kader" d="M205.52,137.3c-3.7-11.7-11.5-19.17-23.29-22.44-1.85-.5-3.76-.75-5.62-1.11,3.14-18.79-2-36.3-19.33-47.58a40.6,40.6,0,0,0-24.45-6.76c-12.66.6-23.3,5.87-32,15.73a34.76,34.76,0,0,0-2.25-2.71C88.47,62.54,76.45,58,62.33,59.92c-16.54,2.27-28,11.47-34.67,26.65-1.24,2.82-2,5.86-3,8.8v17c.18.11.52.21.54.35,2.44,16.17,10.87,29.14,21.82,40.73,15.84,16.77,36,27.91,53.88,41.84l17.11-12.43c4.13,5.59,8.2,10.9,12,16.37,1.24,1.78,2.32,2.2,4.35,1.42,3.16-1.22,6.44-2.16,9.69-3.13,12.48-3.74,25.13-7,36.58-13.5,11-6.26,19.63-14.59,24-26.78.53-1.49,1.15-2.94,1.73-4.41V139.38A22.5,22.5,0,0,1,205.52,137.3ZM100.88,185.52c-11.61-8.42-23.41-16.45-34.61-25.25C53.19,150,41.56,138.2,35.74,122.08c-5-13.93-5.66-27.73,3.65-40.42,13.92-19,42.45-19.07,56.62-.3,1.56,2,3.12,4.11,5.11,6.7,6.75-10.4,14.89-18.25,27-20.25a34,34,0,0,1,21.35,2.91c13,6.64,23.82,20.49,19.13,43.55l-9,3.13c-3.13-3.55-5.79-7.39-9.21-10.33-9.51-8.16-20.55-9.68-32.11-5.42-11.92,4.4-18.26,13.64-20.48,25.9-2.77,15.34,2.59,28.7,10.27,41.45,1.51,2.52,3.22,4.94,5,7.71C109.11,179.64,105.05,182.53,100.88,185.52Zm95.71-29.1c-5.21,12-14.83,19.43-26.48,24-10.91,4.31-22.25,7.5-33.43,11.08a3,3,0,0,1-2.66-.69c-8.66-11.44-18.36-22.21-24.33-35.47-4.61-10.23-6.6-20.77-2.71-31.83a24.23,24.23,0,0,1,45.56-.57c.8,2.19,1.59,4.38,2.57,7.08,1.95-1.32,3.43-2.25,4.84-3.28,9.68-7,21.42-6.64,30.62,1C198.53,134.28,201,146.25,196.59,156.42Z"/><path id="Hart-big-inner" class="cls-1" d="M168.63,114.27l-9,3.13c-3.13-3.55-5.79-7.39-9.21-10.33-9.51-8.16-20.55-9.68-32.11-5.42-11.92,4.4-18.26,13.64-20.48,25.9-2.77,15.34,2.59,28.7,10.27,41.45,1.51,2.52,3.22,4.94,5,7.71-4.08,2.93-8.14,5.82-12.31,8.81-11.61-8.42-23.41-16.45-34.61-25.25C53.19,150,41.56,138.2,35.74,122.08c-5-13.93-5.66-27.73,3.65-40.42,13.92-19,42.45-19.07,56.62-.3,1.56,2,3.12,4.11,5.11,6.7,6.75-10.4,14.89-18.25,27-20.25a34,34,0,0,1,21.35,2.91C162.49,77.36,173.32,91.21,168.63,114.27Z"/><path id="Hart-small-inner" class="cls-1" d="M196.59,156.42c-5.21,12-14.83,19.43-26.48,24-10.91,4.31-22.25,7.5-33.43,11.08a3,3,0,0,1-2.66-.69c-8.66-11.44-18.36-22.21-24.33-35.47-4.61-10.23-6.6-20.77-2.71-31.83a24.23,24.23,0,0,1,45.56-.57c.8,2.19,1.59,4.38,2.57,7.08,1.95-1.32,3.43-2.25,4.84-3.28,9.68-7,21.42-6.64,30.62,1C198.53,134.28,201,146.25,196.59,156.42Z"/></svg>