<svg id="Thriller" viewBox="0 0 228.19 260.43"><defs><style>.cls-1{fill:#fff;}.cls-2{fill:#020202;}.cls-3{fill:#1d1d1b;}.cls-4{fill:#050505;}.cls-5{fill:#030303;}.cls-6{fill:#040404;}.cls-7{fill:#090909;}</style></defs>
<title>Thriller</title><g id="mask-inner"><path id="mask-inner-2" data-name="mask-inner" class="cls-1" d="M164.55,106.77c1.15,0,2.31,0,3.47,0,9.75,0,9.73,0,6.71-9.48C167.86,75.66,152.31,64,130.89,59c-2.38-.56-2.39.72-2.39,2.41,0,7.76,0,15.51,0,23.27,0,3.21-1.58,4.71-4.65,4.73-6.6,0-13.2.06-19.8,0-2.9,0-4.46-1.56-4.43-4.59,0-3.93,0-7.87,0-11.81s-.08-7.87,0-11.81c0-2-.53-2.64-2.61-2.13a72.43,72.43,0,0,0-17.81,6.55c-15.45,8.39-24,21.69-27.68,38.56-.37,1.75,0,2.8,2.18,2.67,3.12-.18,6.25-.07,9.38,0,3.78,0,4.89,1.11,4.92,5q.06,9.38,0,18.76c0,3.54-1.4,5-4.94,5.23-1.15.08-2.31,0-3.47,0-7.9,0-8.06,0-6,7.74,5.53,20.65,15.21,38.83,32.37,52.26,11.4,8.91,24.16,12.77,38.55,9,11-2.91,19.59-9.48,27.08-17.74,12.66-14,20.11-30.49,24.17-48.72.36-1.64.11-2.64-2-2.53-2.89.14-5.79.12-8.68,0-3.62-.14-5-1.6-5.06-5.1,0-6.37,0-12.73,0-19.1C160.08,108.53,161.21,106.66,164.55,106.77ZM74.66,126.58a16.42,16.42,0,0,1,16.62-16.33,16,16,0,0,1,15.86,16.63c-.19,8.73-7.72,16.05-16.34,15.85S74.66,135.14,74.66,126.58Zm30.64,73.11A5.61,5.61,0,0,1,99.66,194a5.72,5.72,0,0,1,5.77-5.61,5.47,5.47,0,0,1,5.19,5.72A5.28,5.28,0,0,1,105.3,199.69Zm-.26-17.9a5.55,5.55,0,1,1,5.58-5.27A5.29,5.29,0,0,1,105,181.79Zm8.72-24.46c-3.45,0-6.91,0-10.36,0-.65,0-1.5.2-1.79-.63s.37-1.24.83-1.75c5.77-6.36,16.53-6.77,22.73-.85.74.7,1.83,1.45,1.39,2.56s-1.83.64-2.78.65C120.44,157.37,117.1,157.33,113.76,157.33Zm9.35,42.36c-3.25.1-5.56-2.28-5.55-5.71a5.51,5.51,0,0,1,5.29-5.62,5.78,5.78,0,0,1,5.67,5.73A5.62,5.62,0,0,1,123.11,199.69Zm-.36-17.9a5.56,5.56,0,0,1,.21-11.1,5.55,5.55,0,1,1-.21,11.1Zm14.05-39.06A16.32,16.32,0,0,1,121,126a16.05,16.05,0,0,1,16.78-15.7c8.12.25,15.57,6.55,15.63,16.55C153.51,135.63,145.47,143.06,136.8,142.73Z"/><path class="cls-1" d="M121,64.65c-.09-3.53,1.59-8.36-.72-10.23s-6.84-.39-10.39-.64c-2.44-.18-2.86.9-2.78,3,.13,3.57,0,7.15,0,10.73,0,1.15-.06,2.31,0,3.46.23,3.52-1.57,8.35.75,10.21s6.84.37,10.39.62c2.43.18,2.85-.85,2.79-3C120.94,74.11,121.13,69.38,121,64.65Zm-7,14.92c-1.73-.22-3.84-.22-3.94-2.44s1.81-2.35,3.5-2.31,4.09-.3,4,2.4C117.56,79.36,115.54,79.3,114,79.57Z"/><path class="cls-1" d="M53.32,114.26c-6.61,0-6.61,0-6.61,6.74s0,6.77,6.92,6.77,7,0,7-6.39C60.6,114.26,60.6,114.26,53.32,114.26Zm2.35,10.45c-2.21-.19-2.27-2.38-2.16-4,.1-1.49,0-3.67,2.29-3.58s2.12,2.31,2.69,3.73C57.87,122.55,58.08,124.92,55.67,124.71Z"/><path class="cls-1" d="M174.34,114.26c-6.76,0-6.76,0-6.76,6.59,0,6.92,0,6.92,6.78,6.92,7.11,0,7.11,0,7.11-6.94C181.47,114.26,181.47,114.26,174.34,114.26Zm.28,7.27c0,1.53-.39,3.35-2.33,3.2-2.55-.2-1.93-2.7-2.62-4.08.66-1.72.75-3.86,2.93-3.54C175.08,117.47,174.61,119.8,174.62,121.53Z"/></g><g id="mask-strokes"><path class="cls-2" d="M186.05,106.85c-1.77-.34-1.63-1.61-1.84-2.85a64.3,64.3,0,0,0-12.59-29.22c-10.21-13.11-24.09-20-40-23.37-1.91-.41-3.16-.73-3.57-2.85-.33-1.75-1.8-2.23-3.46-2.23-3.47,0-6.94,0-10.41,0-3.13,0-6.25.1-9.37,0-2.6-.11-4.64.39-5.14,3.35-.19,1.13-.87,1.4-1.91,1.58a63.8,63.8,0,0,0-6.72,1.46C65.35,60,49.63,76.62,44.14,102.78c-.44,2.09-.34,4-3.12,4.52-1.36.27-1.91,1.94-1.91,3.41,0,6.82-.07,13.65,0,20.48a3.84,3.84,0,0,0,3,4.11c1.63.42,2.3,1.47,2.6,3.19a103.35,103.35,0,0,0,6.1,21.15c7.46,18.31,18,34.27,34.88,45.32,10.8,7.09,22.56,10.24,35.53,8.27,15.7-2.38,27.63-11.13,37.69-22.71,13-14.94,20.72-32.51,24.54-51.85.32-1.63.73-2.87,2.45-3.31,2.43-.62,3.21-2.37,3.21-4.67V111.6C189.11,109.36,188.61,107.34,186.05,106.85ZM107.15,71c-.07-1.15,0-2.31,0-3.46,0-3.58.1-7.16,0-10.73-.08-2.11.34-3.19,2.78-3,3.55.25,8.19-1.13,10.39.64s.63,6.7.72,10.23c.13,4.73-.06,9.46.08,14.19.06,2.12-.36,3.15-2.79,3-3.55-.25-8.18,1.15-10.39-.62S107.38,74.5,107.15,71ZM46.71,121c0-6.74,0-6.74,6.61-6.74,7.28,0,7.28,0,7.28,7.12,0,6.39,0,6.39-7,6.39S46.71,127.77,46.71,121Zm129.12,17.29c-4.06,18.23-11.51,34.76-24.17,48.72-7.49,8.26-16.12,14.83-27.08,17.74-14.39,3.81-27.15-.05-38.55-9-17.16-13.43-26.84-31.61-32.37-52.26-2.06-7.7-1.9-7.74,6-7.74,1.16,0,2.32.06,3.47,0,3.54-.23,4.93-1.69,4.94-5.23q0-9.39,0-18.76c0-3.89-1.14-5-4.92-5-3.13,0-6.26-.14-9.38,0-2.22.13-2.55-.92-2.18-2.67C55.22,87.28,63.82,74,79.27,65.59A72.43,72.43,0,0,1,97.08,59c2.08-.51,2.66.1,2.61,2.13-.11,3.94,0,7.88,0,11.81s0,7.88,0,11.81c0,3,1.53,4.55,4.43,4.59,6.6.07,13.2.05,19.8,0,3.07,0,4.67-1.52,4.65-4.73-.05-7.76,0-15.51,0-23.27,0-1.69,0-3,2.39-2.41,21.42,5,37,16.68,43.84,38.31,3,9.49,3,9.48-6.71,9.48-1.16,0-2.32,0-3.47,0-3.34-.11-4.47,1.76-4.46,4.79,0,6.37,0,12.73,0,19.1,0,3.5,1.44,5,5.06,5.1,2.89.12,5.79.14,8.68,0C175.94,135.65,176.19,136.65,175.83,138.29Zm-1.47-10.52c-6.78,0-6.78,0-6.78-6.92,0-6.59,0-6.59,6.76-6.59,7.13,0,7.13,0,7.13,6.57C181.47,127.77,181.47,127.77,174.36,127.77Z"/><path class="cls-3" d="M91.28,110.25a16.42,16.42,0,0,0-16.62,16.33c0,8.56,7.39,16,16.14,16.15s16.15-7.12,16.34-15.85A16,16,0,0,0,91.28,110.25Zm-.33,25c-4.4,0-8.78-4.39-8.75-8.69a8.88,8.88,0,0,1,9-8.64,8.57,8.57,0,0,1,8.37,8.66C99.46,131.12,95.36,135.26,91,135.22Z"/><path class="cls-3" d="M137.82,110.26A16.05,16.05,0,0,0,121,126a16.32,16.32,0,0,0,15.76,16.77c8.67.33,16.71-7.1,16.65-15.92C153.39,116.81,145.94,110.51,137.82,110.26Zm-.63,25c-4.44,0-8.49-4.14-8.54-8.71a8.56,8.56,0,0,1,8.41-8.62,8.88,8.88,0,0,1,8.92,8.69C146,130.88,141.56,135.22,137.19,135.22Z"/><path class="cls-4" d="M126.56,156.65c-.49,1.21-1.83.64-2.78.65-3.34.07-6.68,0-10,0s-6.91,0-10.36,0c-.65,0-1.5.2-1.79-.63s.37-1.24.83-1.75c5.77-6.36,16.53-6.77,22.73-.85C125.91,154.79,127,155.54,126.56,156.65Z"/><path class="cls-5" d="M110.62,176.52a5.29,5.29,0,0,1-5.58,5.27,5.55,5.55,0,1,1,5.58-5.27Z"/><path class="cls-5" d="M128.52,176.34a5.38,5.38,0,0,1-5.77,5.45,5.56,5.56,0,0,1,.21-11.1A5.35,5.35,0,0,1,128.52,176.34Z"/><path class="cls-6" d="M110.62,194.09a5.28,5.28,0,0,1-5.32,5.6A5.61,5.61,0,0,1,99.66,194a5.72,5.72,0,0,1,5.77-5.61A5.47,5.47,0,0,1,110.62,194.09Z"/><path class="cls-6" d="M128.52,194.09a5.62,5.62,0,0,1-5.41,5.6c-3.25.1-5.56-2.28-5.55-5.71a5.51,5.51,0,0,1,5.29-5.62A5.78,5.78,0,0,1,128.52,194.09Z"/><path class="cls-7" d="M117.6,77.22c0,2.14-2.06,2.08-3.61,2.35-1.73-.22-3.84-.22-3.94-2.44s1.81-2.35,3.5-2.31S117.64,74.52,117.6,77.22Z"/><path class="cls-7" d="M58.49,120.82c-.62,1.73-.41,4.1-2.82,3.89-2.21-.19-2.27-2.38-2.16-4,.1-1.49,0-3.67,2.29-3.58S57.92,119.4,58.49,120.82Z"/><path class="cls-7" d="M174.62,121.53c0,1.53-.39,3.35-2.33,3.2-2.55-.2-1.93-2.7-2.62-4.08.66-1.72.75-3.86,2.93-3.54C175.08,117.47,174.61,119.8,174.62,121.53Z"/></g><g id="Eyes"><path class="cls-1" d="M99.53,126.55c-.07,4.57-4.17,8.71-8.58,8.67s-8.78-4.39-8.75-8.69a8.88,8.88,0,0,1,9-8.64A8.57,8.57,0,0,1,99.53,126.55Z"/><path class="cls-1" d="M146,126.58c0,4.3-4.42,8.64-8.79,8.64s-8.49-4.14-8.54-8.71a8.56,8.56,0,0,1,8.41-8.62A8.88,8.88,0,0,1,146,126.58Z"/></g></svg>